<svg xmlns="http://www.w3.org/2000/svg" viewBox="0 0 1899.08 474.52">
  <polygon fill="#fff" points="665.03 144.04 710 144.04 710 195.29 732.83 195.29 732.83 72 710 72 710 122.9 665.03 122.9 665.03 72 642.19 72 642.19 195.29 665.03 195.29 665.03 144.04"/>
  <path fill="#fff" d="M818.19,192.47c6.8-3.52,12.16-8.63,16.08-15.32,3.92-6.69,5.88-14.73,5.88-24.13v-2.82c0-9.39-1.96-17.44-5.88-24.13-3.92-6.69-9.28-11.8-16.08-15.32-6.81-3.52-14.48-5.28-23.01-5.28s-16.2,1.76-23.01,5.28c-6.81,3.52-12.17,8.63-16.09,15.32-3.92,6.69-5.88,14.74-5.88,24.13v2.82c0,9.4,1.96,17.44,5.88,24.13,3.92,6.69,9.28,11.8,16.09,15.32,6.81,3.52,14.47,5.28,23.01,5.28s16.2-1.76,23.01-5.28ZM778.57,171.43c-4.38-4.4-6.57-10.71-6.57-18.94h0v-1.76c0-8.22,2.19-14.53,6.57-18.93,4.38-4.4,9.92-6.6,16.61-6.6s12.37,2.2,16.69,6.6,6.49,10.71,6.49,18.93v1.76c0,8.22-2.19,14.53-6.57,18.94-4.39,4.4-9.92,6.6-16.61,6.6s-12.23-2.2-16.61-6.6Z"/>
  <path fill="#fff" d="M908.21,192.47h0c3.8-2.82,6.4-5.69,7.78-8.63h3.11v11.45h21.45v-87.36h-21.79v44.39c0,8.1-1.85,14.41-5.54,18.93-3.69,4.52-8.88,6.78-15.57,6.78-5.88,0-10.41-1.64-13.58-4.93-3.17-3.29-4.75-8.22-4.75-14.8v-50.37h-21.79v52.14c0,7.16,1.38,13.5,4.15,19.02,2.76,5.52,6.66,9.84,11.67,12.94,5.02,3.11,10.87,4.67,17.56,4.67,7.72,0,13.49-1.41,17.3-4.23Z"/>
  <path fill="#fff" d="M1025.61,190.27h0c6.51-4.99,9.77-12.07,9.77-21.23,0-6.1-1.53-10.95-4.58-14.53-3.06-3.58-7.21-6.34-12.45-8.28-5.25-1.94-11.1-3.49-17.56-4.67l-4.84-.88c-3.93-.7-7.04-1.73-9.34-3.08-2.31-1.35-3.46-3.43-3.46-6.25,0-2.58,1.09-4.61,3.29-6.08,2.19-1.47,5.36-2.2,9.51-2.2s7.64.94,10.46,2.82c2.82,1.88,4.7,5.05,5.62,9.51l20.24-6.34c-1.96-7.05-6.11-12.74-12.45-17.08-6.35-4.34-14.3-6.52-23.87-6.52-10.15,0-18.34,2.32-24.56,6.96-6.23,4.64-9.34,11.31-9.34,19.99,0,5.75,1.5,10.45,4.5,14.09,3,3.64,6.97,6.49,11.94,8.54,4.96,2.05,10.44,3.67,16.43,4.84l4.84.88c5.07.94,8.77,2.15,11.07,3.61,2.31,1.47,3.46,3.55,3.46,6.25s-1.21,4.96-3.64,6.78c-2.42,1.82-6.17,2.73-11.24,2.73-3.35,0-6.43-.5-9.26-1.49s-5.19-2.67-7.09-5.02c-1.9-2.35-3.26-5.58-4.07-9.69l-20.06,5.29c1.5,9.16,5.82,16.2,12.97,21.13,7.15,4.93,16.32,7.4,27.5,7.4s19.69-2.49,26.2-7.48Z"/>
  <path fill="#fff" d="M1112.88,193.97h0c5.07-2.52,9.14-5.58,12.2-9.16,3.05-3.58,5.39-6.9,7-9.95l-17.81-9.51c-1.5,3.29-3.69,6.28-6.57,8.98-2.89,2.7-7.38,4.05-13.5,4.05s-11.07-1.88-15.22-5.64c-4.15-3.76-6.34-8.63-6.57-14.62h62.45v-7.57c0-8.92-1.73-16.76-5.19-23.51-3.46-6.75-8.3-12.03-14.53-15.85-6.23-3.81-13.55-5.72-21.97-5.72s-16.03,1.85-22.49,5.55c-6.46,3.7-11.48,8.93-15.05,15.67-3.58,6.76-5.36,14.71-5.36,23.87v2.11c0,9.16,1.82,17.11,5.45,23.86,3.63,6.75,8.7,11.98,15.22,15.67,6.51,3.7,14.04,5.55,22.57,5.55,7.84,0,14.3-1.26,19.37-3.78ZM1078.97,129.42c3.46-3.05,8.13-4.58,14.01-4.58s10.23,1.53,13.75,4.58c3.51,3.06,5.5,7.11,5.96,12.15h-40.13c.8-5.05,2.94-9.1,6.4-12.15Z"/>
  <path fill="#fff" d="M1261.98,110.75c-6.81-3.52-14.47-5.28-23-5.28s-16.2,1.76-23,5.28c-6.81,3.52-12.17,8.63-16.09,15.32-3.93,6.69-5.88,14.74-5.88,24.13v2.82c0,9.4,1.96,17.44,5.88,24.13,3.92,6.69,9.28,11.8,16.09,15.32,6.8,3.52,14.47,5.28,23,5.28s16.2-1.76,23-5.28c6.81-3.52,12.17-8.63,16.09-15.32,3.92-6.69,5.88-14.73,5.88-24.13v-2.82c0-9.39-1.96-17.44-5.88-24.13-3.92-6.69-9.28-11.8-16.09-15.32ZM1262.16,152.49c0,8.22-2.19,14.53-6.58,18.94-4.38,4.4-9.92,6.6-16.6,6.6s-12.22-2.2-16.61-6.6-6.57-10.71-6.57-18.94v-1.76c0-8.22,2.19-14.53,6.57-18.93s9.92-6.6,16.61-6.6,12.37,2.2,16.69,6.6,6.49,10.71,6.49,18.93v1.76Z"/>
  <path fill="#fff" d="M1337.23,195.29v-69.04h22.49v-18.32h-22.49v-12.33c0-3.52,1.62-5.29,4.85-5.29h14.87v-18.32h-22.49c-5.65,0-10.24,1.79-13.75,5.37-3.52,3.58-5.28,8.37-5.28,14.35v16.2h-21.79v18.32h21.79v69.04h21.79Z"/>
  <path fill="#fff" d="M746.25,274.18c-3.92,0-7.24,1.29-9.95,3.88s-4.07,5.99-4.07,10.22,1.36,7.64,4.07,10.23,6.03,3.88,9.95,3.88,7.39-1.29,10.04-3.88c2.65-2.59,3.98-5.99,3.98-10.23s-1.33-7.64-3.98-10.22c-2.66-2.59-6-3.88-10.04-3.88Z"/>
  <polygon fill="#fff" points="642.19 400.06 665.05 400.06 665.05 348.75 714.22 348.75 714.22 327.6 665.05 327.6 665.05 297.8 718.38 297.8 718.38 276.65 642.19 276.65 642.19 400.06"/>
  <rect fill="#fff" x="735.34" y="312.61" width="21.81" height="87.45"/>
  <path fill="#fff" d="M846.67,315.87h0c-5.02-3.11-10.88-4.67-17.58-4.67-7.73,0-13.51,1.38-17.31,4.14-3.81,2.76-6.4,5.67-7.79,8.73h-3.12v-11.46h-21.47v87.45h21.81v-44.43c0-8.11,1.84-14.42,5.54-18.95,3.69-4.52,8.89-6.79,15.58-6.79,5.89,0,10.42,1.65,13.59,4.94,3.17,3.29,4.76,8.23,4.76,14.81v50.42h21.82v-52.19c0-7.28-1.39-13.66-4.15-19.13-2.77-5.47-6.67-9.76-11.69-12.87Z"/>
  <path fill="#fff" d="M957.43,376.43h0v-32.61c0-10.93-3.29-19.27-9.87-25.04-6.58-5.76-15.52-8.64-26.84-8.64-7.39,0-13.65,1.15-18.78,3.44-5.14,2.29-9.24,5.29-12.29,8.99-3.06,3.7-5.28,7.79-6.67,12.26l20.09,6.87c.81-3.99,2.54-7.26,5.2-9.79,2.65-2.53,6.69-3.79,12.12-3.79s9.58,1.32,12.12,3.97c2.54,2.64,3.81,6.02,3.81,10.14v4.94h-23.55c-6.47,0-12.21,1.03-17.23,3.09-5.02,2.06-8.95,5.11-11.77,9.17-2.83,4.06-4.24,9.08-4.24,15.08s1.41,11.08,4.24,15.25c2.83,4.17,6.67,7.35,11.52,9.52,4.84,2.17,10.33,3.26,16.45,3.26s10.74-.88,14.2-2.64c3.46-1.77,6-3.79,7.62-6.08,1.62-2.29,2.66-4.14,3.12-5.55h3.29v.18c0,3.52,1.38,6.35,4.16,8.46,2.77,2.12,6.29,3.17,10.56,3.17h14.54v-18.33h-6.93c-3.23,0-4.85-1.76-4.85-5.29ZM936.31,365.5c0,5.76-1.93,10.37-5.8,13.84-3.87,3.47-8.86,5.2-14.98,5.2-4.62,0-8.13-1-10.56-3-2.43-2-3.64-4.58-3.64-7.76s1.16-5.64,3.46-7.4c2.31-1.76,5.48-2.65,9.52-2.65h21.99v1.76Z"/>
  <path fill="#fff" d="M1052.39,315.87h0c-5.02-3.11-10.88-4.67-17.57-4.67-7.73,0-13.5,1.38-17.31,4.14-3.81,2.76-6.41,5.67-7.79,8.73h-3.12v-11.46h-21.47v87.45h21.81v-44.43c0-8.11,1.85-14.42,5.54-18.95,3.69-4.52,8.89-6.79,15.58-6.79,5.88,0,10.42,1.65,13.59,4.94,3.17,3.29,4.76,8.23,4.76,14.81v50.42h21.81v-52.19c0-7.28-1.38-13.66-4.16-19.13-2.77-5.47-6.67-9.76-11.69-12.87Z"/>
  <path fill="#fff" d="M1145.62,377.58h0c-3.41,3.47-8.4,5.2-14.97,5.2-4.39,0-8.34-.97-11.86-2.91-3.52-1.94-6.29-4.82-8.31-8.64-2.02-3.82-3.03-8.49-3.03-14.02v-1.76c0-5.52,1.01-10.2,3.03-14.01,2.02-3.82,4.79-6.7,8.31-8.64,3.52-1.94,7.47-2.91,11.86-2.91s8.05.82,10.99,2.47c2.94,1.65,5.22,3.88,6.84,6.7,1.61,2.82,2.65,5.99,3.12,9.52l21.12-4.59c-1.15-6.46-3.55-12.25-7.18-17.36-3.64-5.11-8.4-9.14-14.29-12.08-5.89-2.94-12.93-4.41-21.12-4.41s-15.84,1.76-22.6,5.29c-6.75,3.53-12.09,8.64-16.02,15.34-3.92,6.7-5.88,14.81-5.88,24.33v2.47c0,9.52,1.96,17.63,5.88,24.33,3.92,6.7,9.27,11.81,16.02,15.34,6.75,3.52,14.28,5.29,22.6,5.29s15.24-1.47,21.12-4.41c5.89-2.94,10.65-6.96,14.29-12.07,3.63-5.11,6.2-10.78,7.7-17.01l-21.13-5.11c-.92,5.64-3.09,10.2-6.49,13.66Z"/>
  <path fill="#fff" d="M1252.02,315.87h0c-6.23-3.82-13.56-5.73-21.99-5.73s-16.04,1.85-22.51,5.55c-6.47,3.7-11.49,8.93-15.06,15.69-3.58,6.76-5.37,14.72-5.37,23.89v2.12c0,9.17,1.82,17.13,5.46,23.89,3.63,6.76,8.71,11.99,15.24,15.69,6.52,3.7,14.05,5.55,22.59,5.55,7.85,0,14.31-1.26,19.39-3.79,5.08-2.53,9.15-5.58,12.21-9.17,3.06-3.58,5.39-6.9,7.01-9.96l-17.83-9.52c-1.5,3.29-3.7,6.29-6.58,8.99-2.89,2.7-7.39,4.05-13.51,4.05s-11.08-1.88-15.24-5.64c-4.16-3.76-6.35-8.64-6.58-14.63h62.51v-7.58c0-8.93-1.73-16.78-5.2-23.54-3.46-6.76-8.31-12.05-14.54-15.87ZM1209.42,346.28c.81-5.05,2.95-9.11,6.41-12.16,3.46-3.06,8.14-4.58,14.02-4.58s10.24,1.53,13.77,4.58c3.52,3.06,5.51,7.11,5.97,12.16h-40.17Z"/>
  <path fill="#fff" d="M1402.98,312.61h0s-21.81,0-21.81,0v15.87h-16.79c-3.23,0-6.21-.59-8.92-1.76-2.72-1.17-4.91-3-6.58-5.47-1.68-2.47-2.51-5.64-2.51-9.52,0-5.53,1.7-9.7,5.11-12.52,3.4-2.82,7.7-4.23,12.9-4.23h14.89v-18.33h-18.88c-6.92,0-13.07,1.26-18.44,3.79-5.37,2.53-9.61,6.26-12.72,11.19-3.12,4.94-4.68,10.99-4.68,18.16s1.84,12.93,5.54,17.28,8.43,7.4,14.2,9.17v2.47c-3.81,1.17-7.27,3-10.38,5.47-3.12,2.47-5.57,5.58-7.36,9.34s-2.68,8.17-2.68,13.22c0,6.93,1.5,12.9,4.5,17.89,3,5,7.18,8.82,12.55,11.46,5.37,2.65,11.63,3.97,18.79,3.97h43.29v-53.24h15.93v-18.33h-15.93v-15.87ZM1381.16,381.72h-17.49c-4.73,0-8.92-1.44-12.55-4.32-3.64-2.88-5.45-7.26-5.45-13.13s1.73-10.11,5.19-13.05c3.46-2.94,7.73-4.41,12.81-4.41h17.49v34.91Z"/>
  <polygon fill="#fff" points="1544.61 276.65 1451.11 276.65 1451.11 297.8 1486.43 297.8 1486.43 400.06 1509.29 400.06 1509.29 297.8 1544.61 297.8 1544.61 276.65"/>
  <path fill="#fff" d="M1603.38,315.87h0c-6.23-3.82-13.56-5.73-21.99-5.73s-16.04,1.85-22.51,5.55c-6.47,3.7-11.49,8.93-15.06,15.69-3.58,6.76-5.37,14.72-5.37,23.89v2.12c0,9.17,1.82,17.13,5.45,23.89s8.72,11.99,15.24,15.69c6.52,3.7,14.05,5.55,22.6,5.55,7.85,0,14.31-1.26,19.39-3.79,5.08-2.53,9.15-5.58,12.2-9.17,3.06-3.58,5.4-6.9,7.01-9.96l-17.83-9.52c-1.5,3.29-3.7,6.29-6.58,8.99-2.89,2.7-7.39,4.05-13.51,4.05s-11.08-1.88-15.24-5.64c-4.16-3.76-6.35-8.64-6.58-14.63h62.5v-7.58c0-8.93-1.73-16.78-5.19-23.54-3.46-6.76-8.31-12.05-14.54-15.87ZM1560.79,346.28c.81-5.05,2.95-9.11,6.41-12.16,3.46-3.06,8.14-4.58,14.02-4.58s10.24,1.53,13.76,4.58c3.52,3.06,5.51,7.11,5.97,12.16h-40.17Z"/>
  <path fill="#fff" d="M1698.35,377.58c-3.41,3.47-8.4,5.2-14.98,5.2-4.39,0-8.34-.97-11.86-2.91-3.52-1.94-6.29-4.82-8.31-8.64-2.02-3.82-3.03-8.49-3.03-14.02v-1.76c0-5.52,1.01-10.2,3.03-14.01,2.02-3.82,4.79-6.7,8.31-8.64,3.52-1.94,7.47-2.91,11.86-2.91s8.05.82,10.99,2.47c2.95,1.65,5.22,3.88,6.84,6.7,1.61,2.82,2.65,5.99,3.12,9.52l21.12-4.59c-1.16-6.46-3.55-12.25-7.18-17.36-3.64-5.11-8.4-9.14-14.29-12.08-5.89-2.94-12.93-4.41-21.12-4.41s-15.84,1.76-22.6,5.29c-6.75,3.53-12.09,8.64-16.01,15.34-3.93,6.7-5.89,14.81-5.89,24.33v2.47c0,9.52,1.96,17.63,5.89,24.33,3.92,6.7,9.26,11.81,16.01,15.34,6.75,3.52,14.29,5.29,22.6,5.29s15.24-1.47,21.12-4.41c5.89-2.94,10.65-6.96,14.29-12.07,3.63-5.11,6.2-10.78,7.7-17.01l-21.12-5.11c-.93,5.64-3.09,10.2-6.49,13.66Z"/>
  <path fill="#fff" d="M1822.92,328.74h0c-2.77-5.47-6.67-9.76-11.69-12.87-5.02-3.11-10.88-4.67-17.57-4.67-5.08,0-9.26.62-12.55,1.85s-5.92,2.79-7.88,4.67c-1.96,1.88-3.41,3.76-4.33,5.64h-3.12v-46.72h-21.81v123.41h21.81v-44.43c0-8.11,1.85-14.42,5.54-18.95,3.69-4.52,8.89-6.79,15.58-6.79,5.88,0,10.42,1.65,13.59,4.94,3.17,3.29,4.76,8.23,4.76,14.81v50.42h21.82v-52.19c0-7.28-1.39-13.66-4.16-19.13Z"/>
  <polygon fill="#fff" points="224.06 238.8 119 295.43 119 72 72 72 72 399.95 119 399.95 119 343.28 224.06 286.62 224.06 399.93 271.05 399.93 271.05 261.26 271.06 261.25 329.14 229.95 329.14 182.13 271.06 213.43 271.05 213.44 271.05 119.85 376.12 119.85 376.12 399.94 423.1 399.94 423.1 119.85 528.17 119.85 528.17 72.01 224.06 72.05 224.06 238.8"/>
</svg>